<svg xmlns="http://www.w3.org/2000/svg" viewBox="0 0 200 200"> <defs> <style>.cls-1{fill: #233d94;}.cls-2,.cls-3{stroke: #233d94;stroke-linecap: round;stroke-miterlimit: 10;fill: none;}.cls-2{stroke-width: 5.99px;}.cls-3{stroke-width: 12.86px;}#el2,#er2{opacity: 0;}@keyframes smileA{0%{opacity: 1;transform: scaleY(1);}20%{opacity: 1;transform: scaleY(0.8);}40%{opacity: 0;transform: scaleY(0.8);}60%{}80%{}100%{opacity: 0;transform: scaleY(0.8);}}@keyframes smileB{0%{opacity: 0;transform: scaleY(1);}20%{opacity: 0;transform: scaleY(1);}40%{opacity: 1; transform: scaleY(1);}60%{opacity: 1;transform: scaleY(-1);}80%{opacity: 0;transform: scaleY(-1);}100%{opacity: 0;transform: scaleY(-1);}}@keyframes smileC{0%{opacity: 0;transform: scaleY(0.9);}20%{}40%{}60%{opacity: 0;transform: scaleY(0.9);}80%{opacity: 1;transform: scaleY(0.9);}100%{opacity: 1;transform: scaleY(1);}}@keyframes blinkA{0%{opacity: 1;transform: scaleY(1);}50%{opacity: 0;transform: scaleY(1);}75%{opacity: 1;transform: scaleY(0.75);}100%{opacity: 1;transform: scaleY(1);}}@keyframes blinkB{0%{opacity: 0;}50%{opacity: 1;}75%{opacity: 0;}100%{opacity: 0;}}@keyframes eyes-move1{0%{transform: translate(0, 0);}100%{transform: translate(-14px, 2px);}}@keyframes eyes-move2{0%{transform: translate(-14px, 2px);}100%{transform: translate(-26px, 0px);}}@keyframes mouth-move{0%{transform: translate(0, 0);}100%{transform: translate(-22px, 0);}}@keyframes head1{0%{transform: translate(0, 0);}50%{transform: translate(0, 1px);}100%{transform: translate(0, 0);}}@keyframes head2{0%{transform: translate(0, 0);}30%{transform: translate(0, -2px);}50%{transform: translate(0, 4px);}80%{transform: translate(0, -1px);}100%{transform: translate(0, 0);}}#el1,#er1{transform-origin: 50% 49%;animation: blinkA 0.3s 1s steps(1) 1 forwards,blinkA 0.3s 3.9s steps(1) 1 forwards;}#el2,#er2{animation: blinkB 0.3s 1s steps(1) 1 forwards,blinkB 0.3s 3.9s steps(1) 1 forwards;}#eyes{animation: eyes-move1 0.4s 2.1s 1 forwards, eyes-move2 0.3s 3.9s 1 forwards;}#smile{transform-origin: 111px 142px;animation: mouth-move 0.3s 3.9s forwards;}#m1{transform-origin: 111px 142px; transform: scaleY(1);opacity: 1;animation: smileA 0.3s 3.9s steps(1) forwards;}#m2{transform-origin: 111px 142px;transform: scaleY(1);opacity: 0;animation: smileB 0.3s 3.9s steps(1) forwards;}#m3{opacity: 0;transform-origin: 111px 142px;animation: smileC 0.3s 3.9s steps(1) forwards;}#h{position: relative;animation: head1 0.6s 2s 1 forwards, head2 0.9s 3.6s 1 forwards;}</style> </defs> <g id="h"> <path class="cls-1" d="M100.17,193.37a92.2,92.2,0,1,1,92.2-92.2A92.2,92.2,0,0,1,100.17,193.37Zm0-171.53a79.34,79.34,0,1,0,79.34,79.33A79.33,79.33,0,0,0,100.17,21.84Z"/> <g id="eyes"><circle id="el1" class="cls-1" cx="87.82" cy="88.74" r="8.83"/><path id="el2" class="cls-2" d="M76.14,92A48.6,48.6,0,0,0,87.91,94,46.43,46.43,0,0,0,99.51,92"/><circle id="er1" class="cls-1" cx="137.99" cy="88.91" r="8.83"/><path id="er2" class="cls-2" d="M126.29,92.51a48.53,48.53,0,0,0,11.82,1.66A46.85,46.85,0,0,0,149.65,92"/> </g> <g id="smile"><path id="m1" class="cls-3" d="M76.05,149.78s14.74-19.47,41.28-16.45c22.77,2.6,28.74,15,28.74,15"/> <path id="m2" class="cls-3" d="M76,145.05s16.62-7.11,33.62-7.11,36.4,5.62,36.4,5.62"/><path id="m3" class="cls-3" d="M76.05,130.7S85,151,107.76,153.55c26.54,3,38.31-24.34,38.31-24.34"/> </g> </g> </svg>